<?xml version="1.0" encoding="UTF-8"?>
<svg version="1.1" xmlns="http://www.w3.org/2000/svg" width="2000" height="2000">
<path d="M0 0 C660 0 1320 0 2000 0 C2000 660 2000 1320 2000 2000 C1340 2000 680 2000 0 2000 C0 1340 0 680 0 0 Z " fill="#963C00" transform="translate(0,0)"/>
<path d="M0 0 C78.36111111 0 78.36111111 0 102 2 C103.20962402 2.10183594 104.41924805 2.20367188 105.66552734 2.30859375 C171.87938098 8.18540202 233.42215878 30.54090691 282.7265625 75.9140625 C284.24327546 77.30568573 285.78007957 78.6757211 287.3359375 80.0234375 C310.99245369 100.6176215 330.18355522 126.71741757 347 153 C347.76860352 154.19931152 347.76860352 154.19931152 348.55273438 155.42285156 C356.97687917 168.63932966 364.70020825 182.20314838 372.28564453 195.9140625 C374.97296164 200.75138637 377.70612733 205.56246194 380.4375 210.375 C385.81680969 219.86935008 391.12074377 229.40439144 396.41162109 238.94824219 C400.95426559 247.13552577 405.54299405 255.29548193 410.15844727 263.44189453 C415.88662934 273.55518317 421.56051503 283.69866584 427.23388672 293.84277344 C429.5718439 298.02226781 431.91180829 302.20063647 434.25195312 306.37890625 C436.00284238 309.505075 437.75337399 312.63144384 439.50390625 315.7578125 C441.82297097 319.89913811 444.14338726 324.03970218 446.46484375 328.1796875 C452.52060086 338.98203312 458.55608874 349.79513013 464.5625 360.625 C469.17297768 368.93699711 473.81244224 377.23122879 478.5 385.5 C489.15504137 404.30147705 499.58581494 423.22829158 510.0144043 442.15600586 C513.90745732 449.21986327 517.81942104 456.27278392 521.74682617 463.31762695 C528.49926854 475.43305162 535.12905043 487.60851901 541.68359375 499.83203125 C544.20839355 504.53757142 546.75968018 509.22761967 549.32861328 513.90917969 C563.30237925 539.37974041 576.77496318 565.13354279 590 591 C590.59796387 592.16724609 591.19592773 593.33449219 591.81201172 594.53710938 C600.45718832 611.45878838 608.461779 628.56289356 616 646 C611.16686527 574.50875704 599.67963374 502.0892333 577 434 C576.64083496 432.90236328 576.28166992 431.80472656 575.91162109 430.67382812 C556.41451347 371.24573357 525.76486774 319.00326612 486 271 C484.91995959 269.68279432 483.84058634 268.36504146 482.76171875 267.046875 C477.70241092 260.87293512 472.64294691 254.70736086 467.40332031 248.68505859 C460.77351636 241.06365505 454.59795706 233.14758172 448.54638672 225.06103516 C447.10534015 223.14039809 445.6501581 221.23141898 444.19140625 219.32421875 C427.00484351 196.65172503 413.31929957 171.53505219 404.75146484 144.36230469 C404.01763241 142.05542923 403.24109905 139.76677447 402.45703125 137.4765625 C387.79501677 93.35012314 389 45.71968676 389 0 C477.11 0 565.22 0 656 0 C656 274.23 656 548.46 656 831 C645.77 831 635.54 831 625 831 C624.29537419 827.47687095 623.82246802 824.42875451 623.60546875 820.89453125 C621.68949252 792.6292088 615.34868821 766.686355 596 745 C595.28585937 744.19175781 594.57171875 743.38351562 593.8359375 742.55078125 C582.67180175 730.65854969 568.68895691 722.73304158 554 716 C553.36126953 715.7014209 552.72253906 715.4028418 552.06445312 715.09521484 C534.24037779 706.79390057 515.57865745 701.13974581 496.70214844 695.77148438 C493.10719542 694.74509736 489.52181256 693.68783017 485.9375 692.625 C480.70878411 691.07459856 475.47020449 689.56367322 470.22265625 688.078125 C424.16214355 674.98432791 376.75330996 660.15171021 338 631 C337.42266113 630.57380371 336.84532227 630.14760742 336.25048828 629.70849609 C329.67536385 624.85021992 323.39524024 619.74375868 317.3828125 614.1953125 C315.81487242 612.75075131 314.22653347 611.3279717 312.6171875 609.9296875 C282.26694932 583.48301693 263.51116588 547.92670942 244.19775391 513.25146484 C240.23744507 506.15809189 236.17877537 499.1288463 232.0625 492.125 C226.42028358 482.52287577 220.98597357 472.81779358 215.60571289 463.06689453 C211.50272794 455.65083815 207.2974353 448.30491225 203 441 C197.3343635 431.36681523 191.86953085 421.63370614 186.46264648 411.85327148 C181.27240299 402.46932742 175.97847903 393.14937609 170.63671875 383.85107422 C167.43835474 378.27969968 164.25055133 372.70227967 161.0625 367.125 C160.72066681 366.52712677 160.37883362 365.92925354 160.02664185 365.31326294 C154.96767585 356.46376713 149.93857646 347.59779936 144.93164062 338.71875 C140.33391266 330.5725915 135.68792405 322.45430961 131.03863525 314.33752441 C126.26642711 306.00318036 121.54940142 297.63968101 116.875 289.25 C112.36235263 281.15272992 107.75861161 273.11720563 103.0625 265.125 C97.42038573 255.52281393 91.98597531 245.81779673 86.60571289 236.06689453 C82.50272978 228.65084148 78.29754021 221.30484825 74 214 C68.3858605 204.45723015 62.98116911 194.81146936 57.6340332 185.11694336 C52.68506636 176.16966233 47.57961824 167.32172684 42.390625 158.51171875 C41.84277344 157.58101562 41.29492188 156.6503125 40.73046875 155.69140625 C40.24989014 154.87873291 39.76931152 154.06605957 39.27416992 153.22875977 C38.10492078 151.18352592 37.0293784 149.11845287 36 147 C35.76262429 155.822464 36.11328611 164.36621742 37.13861084 173.12753296 C37.88432958 179.57724558 38.40877482 186.02988226 38.890625 192.50390625 C39.83042352 204.62977171 41.08787951 216.70457126 42.49462891 228.78442383 C42.87522451 232.06443485 43.24458824 235.34558536 43.61328125 238.62695312 C45.17026666 252.25222699 47.14939273 265.75651841 49.52032471 279.26339722 C49.96952663 281.8261459 50.40939364 284.39026884 50.84521484 286.95532227 C56.07211838 317.62891973 61.82676427 348.2414998 71.08129883 377.98999023 C71.78174134 380.28490273 72.46241767 382.58183908 73.12768555 384.88696289 C75.964738 394.71143355 79.03586516 404.4186607 82.4375 414.0625 C82.81758713 415.14143021 82.81758713 415.14143021 83.20535278 416.24215698 C105.589111 479.4104889 141.83732157 532.41799574 185.50732422 582.73681641 C192.43142824 590.71521702 199.16180958 598.79881504 205.59814453 607.17724609 C206.54593178 608.40960061 207.49753956 609.63902475 208.45263672 610.86572266 C230.63433669 639.38087208 247.29767385 670.84699008 256 706 C256.2072168 706.81452637 256.41443359 707.62905273 256.62792969 708.46826172 C266.83516325 748.93430642 267 789.36719068 267 831 C178.89 831 90.78 831 0 831 C0 556.77 0 282.54 0 0 Z " fill="#FEFEFE" transform="translate(672,577)"/>
</svg>
